PathFileType  4	(X/Y/Z) /root/TVB/SAM4Dcap/opencap/output/Data/subject2_Session0/MarkerData/mmpose_0.8/2-cameras/PreAugmentation
DataRate	CameraRate	NumFrames	NumMarkers	Units	OrigDataRate	OrigDataStartFrame	OrigNumFrames
60.0	60.0	15	20	m	60.0	62	164
Frame#	Time	Neck			RShoulder			RElbow			RWrist			LShoulder			LElbow			LWrist			midHip			RHip			RKnee			RAnkle			LHip			LKnee			LAnkle			LBigToe			LSmallToe			LHeel			RBigToe			RSmallToe			RHeel			
		X1	Y1	Z1	X2	Y2	Z2	X3	Y3	Z3	X4	Y4	Z4	X5	Y5	Z5	X6	Y6	Z6	X7	Y7	Z7	X8	Y8	Z8	X9	Y9	Z9	X10	Y10	Z10	X11	Y11	Z11	X12	Y12	Z12	X13	Y13	Z13	X14	Y14	Z14	X15	Y15	Z15	X16	Y16	Z16	X17	Y17	Z17	X18	Y18	Z18	X19	Y19	Z19	X20	Y20	Z20	

62	1.0166667	0.3771000	1.3567500	-0.3272800	0.3893700	1.3594700	-0.1632000	0.4061000	1.1529700	0.0175100	0.6747600	1.1085000	-0.0868500	0.3803200	1.3513900	-0.4926300	0.4632400	1.1506400	-0.6500000	0.7159800	1.1531600	-0.5231800	0.2501100	0.8308200	-0.3036600	0.2590000	0.8354700	-0.1948500	0.3015800	0.3524200	-0.1771900	-0.0349900	-0.0404000	-0.1834000	0.2483000	0.8260700	-0.4132600	0.2552300	0.3388700	-0.3985900	-0.0653900	-0.0616500	-0.3859600	0.0584800	-0.1546900	-0.4455000	0.0531800	-0.1501800	-0.4447900	-0.1018100	-0.0845100	-0.3661900	0.0826900	-0.1474000	-0.1551600	0.0761500	-0.1425600	-0.1546900	-0.0856600	-0.0657100	-0.1935000
63	1.0333333	0.3869000	1.3835900	-0.3269200	0.3967400	1.3875200	-0.1648500	0.3941900	1.1891100	0.0253900	0.6641900	1.1362000	-0.0843500	0.3921800	1.3772400	-0.4901700	0.4689600	1.1782500	-0.6654400	0.7169000	1.1783800	-0.5351800	0.2746700	0.8563300	-0.3044400	0.2809500	0.8611000	-0.1930900	0.3134100	0.3754100	-0.1734700	-0.0166000	-0.0203500	-0.1705400	0.2757100	0.8512100	-0.4165100	0.2734600	0.3652000	-0.4027300	-0.0440700	-0.0331800	-0.3894800	0.0423300	-0.1366000	-0.4557400	0.0388200	-0.1303700	-0.4545400	-0.0844600	-0.0574400	-0.3689400	0.0673300	-0.1394200	-0.1516000	0.0617500	-0.1336500	-0.1509400	-0.0608700	-0.0438900	-0.1803700
64	1.0500000	0.4023300	1.4056600	-0.3268400	0.4134800	1.4097400	-0.1634600	0.3886400	1.2212100	0.0354900	0.6525700	1.1605900	-0.0676400	0.4065000	1.3989400	-0.4914600	0.4751400	1.2033200	-0.6718000	0.7261300	1.1991700	-0.5394600	0.2930400	0.8759400	-0.3075900	0.2993600	0.8815500	-0.1946200	0.3198100	0.3924600	-0.1690000	0.0038400	0.0022800	-0.1709100	0.2942100	0.8702500	-0.4212800	0.2892500	0.3818100	-0.4099400	-0.0270300	-0.0151700	-0.3941400	0.0635200	-0.1241300	-0.4536300	0.0599900	-0.1172300	-0.4527300	-0.0665700	-0.0342300	-0.3706700	0.0806400	-0.1134500	-0.1547000	0.0748200	-0.1065000	-0.1542200	-0.0388200	-0.0158400	-0.1816100
65	1.0666667	0.4135400	1.4292500	-0.3287000	0.4240500	1.4327400	-0.1654100	0.3877500	1.2507100	0.0452600	0.6581300	1.1868800	-0.0518100	0.4183100	1.4229900	-0.4932100	0.4856400	1.2223500	-0.6845300	0.7262800	1.2254100	-0.5549700	0.3121900	0.8948000	-0.3060400	0.3187900	0.8985900	-0.1926700	0.3378100	0.4099200	-0.1669300	0.0327600	0.0235100	-0.1658800	0.3130900	0.8907900	-0.4201100	0.3207700	0.4022200	-0.4226300	-0.0031300	-0.0018900	-0.4096700	0.0927500	-0.1439200	-0.4399300	0.0886800	-0.1391400	-0.4401600	-0.0577600	-0.0136700	-0.3928200	0.0912300	-0.1152100	-0.1509100	0.0886500	-0.1071900	-0.1507400	-0.0106600	0.0139800	-0.1783800
66	1.0833333	0.4266300	1.4474400	-0.3292700	0.4401100	1.4478500	-0.1647300	0.3917000	1.2772900	0.0632100	0.6467200	1.2072900	-0.0360200	0.4285000	1.4435800	-0.4951100	0.4898900	1.2431000	-0.6940400	0.7284200	1.2442100	-0.5642400	0.3319700	0.9325800	-0.3062700	0.3412000	0.9353800	-0.1926300	0.3614500	0.4292400	-0.1676600	0.0573000	0.0258000	-0.1647900	0.3302100	0.9294500	-0.4206600	0.3549100	0.4304700	-0.4310100	0.0313800	0.0342300	-0.4201000	0.0969500	-0.1261200	-0.4394700	0.0945200	-0.1209200	-0.4399800	-0.0208500	0.0276200	-0.4007400	0.1083300	-0.1431700	-0.1539900	0.1059800	-0.1378600	-0.1528500	0.0137000	0.0241500	-0.1749800
67	1.1000000	0.4398900	1.4635600	-0.3318400	0.4490800	1.4662400	-0.1661500	0.3809900	1.3097200	0.0621400	0.6464600	1.2227300	-0.0172100	0.4462600	1.4572900	-0.4986900	0.4949000	1.2580200	-0.7012500	0.7346800	1.2580500	-0.5761100	0.3477400	0.9354600	-0.3040000	0.3565500	0.9379900	-0.1911200	0.3894900	0.4476600	-0.1615800	0.0805700	0.0468300	-0.1572900	0.3462500	0.9327200	-0.4176400	0.3893600	0.4465400	-0.4403000	0.0537500	0.0597700	-0.4278100	0.1044200	-0.1129500	-0.4502400	0.1020800	-0.1070100	-0.4504600	0.0121800	0.0566000	-0.4095700	0.1176000	-0.1332100	-0.1458300	0.1160500	-0.1276100	-0.1451500	0.0289800	0.0438100	-0.1639600
68	1.1166667	0.4597100	1.4730800	-0.3330000	0.4681400	1.4758500	-0.1678700	0.3911500	1.3227500	0.0801500	0.6662700	1.2313800	-0.0018700	0.4667100	1.4666900	-0.4992400	0.4986400	1.2731000	-0.7068900	0.7452900	1.2667400	-0.5751700	0.3618900	0.9458100	-0.3020400	0.3731600	0.9482800	-0.1896500	0.4183600	0.4675900	-0.1592800	0.1062700	0.0736400	-0.1548300	0.3578500	0.9431000	-0.4152200	0.4213000	0.4631400	-0.4427600	0.0923300	0.0825600	-0.4288800	0.1290800	-0.0984400	-0.4549900	0.1280400	-0.0937200	-0.4546800	0.0478300	0.0821000	-0.4113300	0.1488700	-0.1084400	-0.1455800	0.1478900	-0.1035100	-0.1455700	0.0501100	0.0739400	-0.1631900
69	1.1333333	0.4779000	1.4820500	-0.3311400	0.4853100	1.4822300	-0.1647500	0.4006900	1.3336200	0.0926100	0.6596800	1.2383700	0.0228600	0.4860700	1.4778400	-0.4986000	0.5070900	1.2808200	-0.7150000	0.7513600	1.2727000	-0.5873400	0.3724600	0.9542400	-0.3018300	0.3813100	0.9575800	-0.1891700	0.4455300	0.4806000	-0.1569200	0.1348400	0.0916900	-0.1544400	0.3708600	0.9507400	-0.4152400	0.4539400	0.4767600	-0.4450200	0.1029000	0.0863600	-0.4261400	0.1569800	-0.0821800	-0.4562200	0.1554900	-0.0771400	-0.4560900	0.0498000	0.0910700	-0.4088900	0.1757200	-0.0891000	-0.1370000	0.1744900	-0.0844400	-0.1368800	0.0843900	0.0941100	-0.1647900
70	1.1500000	0.4948400	1.4875100	-0.3312300	0.5016700	1.4889200	-0.1639900	0.4018300	1.3505400	0.0971000	0.6566900	1.2381000	0.0379800	0.5038400	1.4827300	-0.4995500	0.5090500	1.2946900	-0.7201600	0.7553700	1.2712500	-0.5960600	0.3844800	0.9630500	-0.3001900	0.3939200	0.9662400	-0.1876200	0.4748500	0.4950300	-0.1535600	0.1625000	0.0986100	-0.1495300	0.3822500	0.9597700	-0.4135400	0.4925600	0.4929500	-0.4520500	0.1449800	0.1211500	-0.4155000	0.1867700	-0.0630700	-0.4509900	0.1865300	-0.0589100	-0.4505200	0.0904000	0.1226600	-0.3926300	0.2071500	-0.0811100	-0.1312300	0.2057000	-0.0767600	-0.1310800	0.1050700	0.0997400	-0.1602500
71	1.1666667	0.5103300	1.4916100	-0.3304700	0.5160700	1.4920800	-0.1625500	0.4016200	1.3624600	0.1023600	0.6532200	1.2378200	0.0533500	0.5204200	1.4873300	-0.4994300	0.5131800	1.2971500	-0.7264200	0.7642700	1.2681600	-0.6038600	0.3984600	0.9659400	-0.3021100	0.4053500	0.9686600	-0.1892300	0.5016500	0.5017100	-0.1508000	0.1982100	0.1107600	-0.1484700	0.3988300	0.9629600	-0.4157100	0.5218500	0.5061300	-0.4558400	0.1900300	0.1343100	-0.4254800	0.2019700	-0.0635000	-0.4517800	0.2013500	-0.0584500	-0.4519000	0.1381300	0.1356900	-0.4032900	0.2430400	-0.0681900	-0.1269700	0.2412700	-0.0636000	-0.1269900	0.1413800	0.1046700	-0.1563400
72	1.1833333	0.5274200	1.4913700	-0.3309200	0.5334900	1.4925600	-0.1611400	0.4065600	1.3727000	0.1027000	0.6361800	1.2402200	0.0612800	0.5374900	1.4863400	-0.5017800	0.5204400	1.3014800	-0.7313900	0.7740300	1.2648900	-0.6094500	0.4110400	0.9799200	-0.3014000	0.4192300	0.9820200	-0.1879900	0.5282200	0.5101900	-0.1481700	0.2296200	0.1079400	-0.1422600	0.4101800	0.9774000	-0.4155700	0.5510800	0.5182900	-0.4566000	0.2161100	0.1249500	-0.4363700	0.2288700	-0.0601300	-0.4572500	0.2285800	-0.0552900	-0.4573200	0.1654200	0.1279900	-0.4134900	0.2907400	-0.0681100	-0.1250700	0.2886400	-0.0642200	-0.1246500	0.1699500	0.1040400	-0.1529200
73	1.2000000	0.5474700	1.4907500	-0.3347000	0.5481400	1.4918500	-0.1631800	0.4127700	1.3794100	0.1035700	0.6375900	1.2362900	0.0757000	0.5632200	1.4855800	-0.5070800	0.5214000	1.3024000	-0.7311300	0.7733000	1.2548000	-0.6171700	0.4247200	0.9778300	-0.2997500	0.4320400	0.9797800	-0.1858700	0.5506700	0.5152700	-0.1442300	0.2694900	0.0972000	-0.1349200	0.4247700	0.9755200	-0.4144000	0.5775300	0.5256900	-0.4594000	0.2631700	0.1305900	-0.4433500	0.2765800	-0.0513900	-0.4571800	0.2754100	-0.0462800	-0.4574800	0.2046900	0.1269100	-0.4223400	0.3308100	-0.0718900	-0.1228800	0.3283900	-0.0676500	-0.1225500	0.2090800	0.0879300	-0.1423600
74	1.2166667	0.5673700	1.4878500	-0.3348500	0.5714500	1.4881000	-0.1632000	0.4270700	1.3845600	0.1035900	0.6385600	1.2257500	0.0939800	0.5796800	1.4836300	-0.5074800	0.5341400	1.3007100	-0.7335400	0.7805900	1.2422200	-0.6261400	0.4389200	0.9797600	-0.2981600	0.4448900	0.9817000	-0.1839000	0.5743700	0.5196500	-0.1439100	0.3105400	0.1067700	-0.1376900	0.4403800	0.9771700	-0.4131600	0.6007800	0.5269900	-0.4623200	0.3075300	0.1327400	-0.4457100	0.3501400	-0.0227300	-0.4504500	0.3483500	-0.0133400	-0.4507300	0.2569300	0.1228800	-0.4297200	0.3862300	-0.0554100	-0.1290700	0.3850200	-0.0450900	-0.1303400	0.2483400	0.0857500	-0.1408100
75	1.2333333	0.5859400	1.4846100	-0.3361900	0.5919100	1.4850800	-0.1665000	0.4342300	1.3859600	0.1019800	0.6279200	1.2217000	0.1015200	0.5959600	1.4804800	-0.5069000	0.5362800	1.2990900	-0.7337900	0.7925900	1.2345900	-0.6303000	0.4524100	0.9766000	-0.3011300	0.4575800	0.9782900	-0.1858200	0.5963900	0.5207400	-0.1397200	0.3416000	0.0772600	-0.1323500	0.4548000	0.9740900	-0.4171700	0.6187900	0.5294000	-0.4630000	0.3453100	0.1059200	-0.4449200	0.4092200	-0.0320500	-0.4466400	0.4057300	-0.0228000	-0.4480100	0.3021600	0.0944200	-0.4267900	0.4327300	-0.0672800	-0.1223900	0.4286600	-0.0619400	-0.1220400	0.2863200	0.0639800	-0.1381600
76	1.2500000	0.6040900	1.4785200	-0.3360800	0.6046800	1.4801300	-0.1674600	0.4407600	1.3878700	0.1015000	0.6206600	1.2121000	0.1116200	0.6192400	1.4733700	-0.5055500	0.5419400	1.2983700	-0.7313500	0.7931700	1.2181500	-0.6389000	0.4684600	0.9707600	-0.2990100	0.4739400	0.9735600	-0.1848700	0.6133500	0.5132200	-0.1377700	0.3809400	0.0521000	-0.1298700	0.4703500	0.9672200	-0.4138800	0.6382800	0.5241700	-0.4673400	0.3836500	0.0906900	-0.4556900	0.4370700	-0.0450200	-0.4702800	0.4342700	-0.0357200	-0.4700900	0.3500100	0.0780300	-0.4358900	0.4918700	-0.0889300	-0.1065800	0.4883500	-0.0852500	-0.1067700	0.3266200	0.0341500	-0.1426900
